<svg width="28" height="29" viewBox="0 0 28 29" fill="none" xmlns="http://www.w3.org/2000/svg">
<g clip-path="url(#clip0_101_75)">
<path d="M14 21.0705L8.78031 15.6245C8.32123 15.1666 8.01785 14.5759 7.91316 13.936C7.80847 13.2961 7.90776 12.6395 8.19698 12.0592V12.0592C8.41596 11.6216 8.73577 11.2422 9.13007 10.9524C9.52438 10.6626 9.98189 10.4706 10.4649 10.3922C10.948 10.3138 11.4427 10.3513 11.9085 10.5016C12.3742 10.6518 12.7975 10.9106 13.1436 11.2565L14 12.1094L14.8528 11.2565C15.1989 10.9106 15.6223 10.6518 16.088 10.5016C16.5537 10.3513 17.0485 10.3138 17.5315 10.3922C18.0146 10.4706 18.4721 10.6626 18.8664 10.9524C19.2607 11.2422 19.5805 11.6216 19.7995 12.0592V12.0592C20.0883 12.6396 20.1874 13.2961 20.0828 13.9359C19.9781 14.5757 19.6749 15.1665 19.2161 15.6245L14 21.0705Z" stroke="url(#paint0_linear_101_75)" stroke-linecap="round" stroke-linejoin="round"/>
<path d="M0.875 14.9455C0.875 18.4265 2.25781 21.7649 4.71922 24.2263C7.18064 26.6877 10.519 28.0705 14 28.0705C17.481 28.0705 20.8194 26.6877 23.2808 24.2263C25.7422 21.7649 27.125 18.4265 27.125 14.9455C27.125 11.4646 25.7422 8.12618 23.2808 5.66476C20.8194 3.20335 17.481 1.82054 14 1.82054C10.519 1.82054 7.18064 3.20335 4.71922 5.66476C2.25781 8.12618 0.875 11.4646 0.875 14.9455V14.9455Z" stroke="url(#paint1_linear_101_75)" stroke-linecap="round" stroke-linejoin="round"/>
</g>
<defs>
<linearGradient id="paint0_linear_101_75" x1="8.43122" y1="22.6584" x2="20.3366" y2="22.2048" gradientUnits="userSpaceOnUse">
<stop stop-color="#F9BE6F"/>
<stop offset="1" stop-color="#FFD393"/>
</linearGradient>
<linearGradient id="paint1_linear_101_75" x1="2.07193" y1="31.9594" x2="27.5906" y2="31.1088" gradientUnits="userSpaceOnUse">
<stop stop-color="#F9BE6F"/>
<stop offset="1" stop-color="#FFD393"/>
</linearGradient>
<clipPath id="clip0_101_75">
<rect width="28" height="28" fill="white" transform="translate(0 0.945541)"/>
</clipPath>
</defs>
</svg>
