<svg width="28" height="29" viewBox="0 0 28 29" fill="none" xmlns="http://www.w3.org/2000/svg">
<g clip-path="url(#clip0_101_11)">
<path d="M14.8505 2.34554L18.7542 10.0794L26.2675 10.8237C26.4464 10.8386 26.6172 10.9044 26.7599 11.0133C26.9025 11.1223 27.0109 11.2698 27.0723 11.4385C27.1337 11.6071 27.1454 11.7899 27.1062 11.965C27.0669 12.1401 26.9783 12.3004 26.8508 12.4267L20.6675 18.5552L22.96 26.8829C23.0069 27.0595 23.0018 27.2459 22.9453 27.4197C22.8887 27.5935 22.7832 27.7473 22.6413 27.8625C22.4995 27.9777 22.3274 28.0495 22.1457 28.0693C21.964 28.089 21.7805 28.0558 21.6172 27.9737L14 24.2019L6.39334 27.969C6.23007 28.0511 6.04655 28.0843 5.86486 28.0646C5.68317 28.0449 5.51105 27.9731 5.36919 27.8578C5.22734 27.7426 5.1218 27.5888 5.06527 27.4151C5.00873 27.2413 5.00361 27.0548 5.05051 26.8782L7.34301 18.5505L1.15501 12.422C1.02753 12.2957 0.938924 12.1355 0.899679 11.9603C0.860435 11.7852 0.872197 11.6025 0.933572 11.4338C0.994948 11.2652 1.10337 11.1176 1.24599 11.0087C1.38862 10.8997 1.55948 10.8339 1.73834 10.819L9.25168 10.0747L13.1495 2.34554C13.2297 2.18897 13.3515 2.05757 13.5016 1.96581C13.6516 1.87405 13.8241 1.8255 14 1.8255C14.1759 1.8255 14.3484 1.87405 14.4985 1.96581C14.6485 2.05757 14.7703 2.18897 14.8505 2.34554V2.34554Z" stroke="url(#paint0_linear_101_11)" stroke-linecap="round" stroke-linejoin="round"/>
</g>
<defs>
<linearGradient id="paint0_linear_101_11" x1="2.07398" y1="31.9636" x2="27.5945" y2="31.1128" gradientUnits="userSpaceOnUse">
<stop stop-color="#F9BE6F"/>
<stop offset="1" stop-color="#FFD393"/>
</linearGradient>
<clipPath id="clip0_101_11">
<rect width="28" height="28" fill="white" transform="translate(0 0.945541)"/>
</clipPath>
</defs>
</svg>
