<svg width="28" height="29" viewBox="0 0 28 29" fill="none" xmlns="http://www.w3.org/2000/svg">
<path d="M12.0645 11.5529C11.8988 11.4753 11.7167 11.4389 11.5339 11.4468C11.3511 11.4547 11.1729 11.5067 11.0145 11.5984C10.86 11.685 10.731 11.8109 10.6407 11.9633C10.5503 12.1157 10.5018 12.2892 10.5 12.4664V17.4235C10.5016 17.6008 10.5499 17.7744 10.64 17.927C10.7302 18.0796 10.8589 18.2057 11.0133 18.2927C11.1718 18.3842 11.35 18.4361 11.5328 18.444C11.7156 18.4519 11.8976 18.4156 12.0633 18.3382L16.7148 16.1414C16.9477 16.04 17.1458 15.8728 17.285 15.6604C17.4242 15.4479 17.4983 15.1995 17.4983 14.9455C17.4983 14.6916 17.4242 14.4431 17.285 14.2307C17.1458 14.0183 16.9477 13.8511 16.7148 13.7497L12.0645 11.5529Z" stroke="url(#paint0_linear_101_35)" stroke-linecap="round" stroke-linejoin="round"/>
<path d="M21.8412 4.44554H6.15883C5.6569 4.44554 5.25 4.85244 5.25 5.35437V24.5367C5.25 25.0386 5.6569 25.4455 6.15883 25.4455H21.8412C22.3431 25.4455 22.75 25.0386 22.75 24.5367V5.35437C22.75 4.85244 22.3431 4.44554 21.8412 4.44554Z" stroke="url(#paint1_linear_101_35)" stroke-linecap="round" stroke-linejoin="round"/>
<path d="M2.2563 7.07054C2.07368 7.07176 1.89308 7.10895 1.72482 7.17996C1.55657 7.25098 1.40395 7.35445 1.27568 7.48445C1.14741 7.61445 1.046 7.76845 0.977249 7.93764C0.908495 8.10684 0.873741 8.28792 0.87497 8.47054V21.4205C0.873741 21.6032 0.908495 21.7842 0.977249 21.9534C1.046 22.1226 1.14741 22.2766 1.27568 22.4066C1.40395 22.5366 1.55657 22.6401 1.72482 22.7111C1.89308 22.7821 2.07368 22.8193 2.2563 22.8205" stroke="url(#paint2_linear_101_35)" stroke-linecap="round" stroke-linejoin="round"/>
<path d="M25.7437 7.07054C25.9263 7.07176 26.1069 7.10895 26.2751 7.17996C26.4434 7.25098 26.596 7.35445 26.7243 7.48445C26.8525 7.61445 26.954 7.76845 27.0227 7.93764C27.0915 8.10684 27.1262 8.28792 27.125 8.47054V21.4205C27.1262 21.6032 27.0915 21.7842 27.0227 21.9534C26.954 22.1226 26.8525 22.2766 26.7243 22.4066C26.596 22.5366 26.4434 22.6401 26.2751 22.7111C26.1069 22.7821 25.9263 22.8193 25.7437 22.8205" stroke="url(#paint3_linear_101_35)" stroke-linecap="round" stroke-linejoin="round"/>
<defs>
<linearGradient id="paint0_linear_101_35" x1="10.8191" y1="19.482" x2="17.6225" y2="19.2552" gradientUnits="userSpaceOnUse">
<stop stop-color="#F9BE6F"/>
<stop offset="1" stop-color="#FFD393"/>
</linearGradient>
<linearGradient id="paint1_linear_101_35" x1="6.04796" y1="28.5567" x2="23.0662" y2="28.0839" gradientUnits="userSpaceOnUse">
<stop stop-color="#F9BE6F"/>
<stop offset="1" stop-color="#FFD393"/>
</linearGradient>
<linearGradient id="paint2_linear_101_35" x1="0.937926" y1="25.1539" x2="2.28229" y2="25.1499" gradientUnits="userSpaceOnUse">
<stop stop-color="#F9BE6F"/>
<stop offset="1" stop-color="#FFD393"/>
</linearGradient>
<linearGradient id="paint3_linear_101_35" x1="25.8066" y1="25.1539" x2="27.151" y2="25.1499" gradientUnits="userSpaceOnUse">
<stop stop-color="#F9BE6F"/>
<stop offset="1" stop-color="#FFD393"/>
</linearGradient>
</defs>
</svg>
