<svg width="57" height="61" viewBox="0 0 57 61" fill="none" xmlns="http://www.w3.org/2000/svg">
<path d="M17.7158 8.25962C16.1438 8.25962 14.5852 8.33805 13.053 8.63857C11.7717 8.88689 10.5697 9.34435 9.84325 10.4945C9.53943 10.978 9.32805 11.5661 9.23561 12.1281C8.89217 14.2584 9.52622 16.1142 10.9924 17.7218C12.0492 18.8719 13.2776 19.7736 14.7041 20.414C15.0872 20.5839 15.4438 20.7799 15.8269 20.9629C16.3156 21.1982 16.5534 21.6164 16.4609 22.1522C16.3156 22.9103 16.1438 23.6683 15.708 24.3348C15.0476 25.3411 14.1097 25.9946 13.0001 26.4389C11.7057 26.9487 10.4508 26.9356 9.15637 26.3867C7.91473 25.8508 6.72593 25.2235 5.6428 24.4132C4.25586 23.3677 3.09348 22.113 2.2349 20.597C1.08573 18.5974 0.596998 16.4279 0.689459 14.1407C0.7423 12.86 0.993264 11.6184 1.38954 10.4029C1.73297 9.35738 2.19528 8.39025 2.76326 7.4493C4.09736 5.21446 5.90698 3.46317 8.15249 2.15625C10.2395 0.953871 12.4718 0.30041 14.8626 0.287338C18.3629 0.261195 21.8634 0.261195 25.3637 0.287338C27.3979 0.30041 29.4321 0.404957 31.4662 0.470307C33.4739 0.535656 35.495 0.62714 37.5027 0.653275C41.0162 0.692481 44.5298 0.731696 48.0302 0.692481C49.6153 0.666347 51.2135 0.470307 52.7986 0.313473C53.2609 0.274267 53.71 0.143576 54.1591 0.052092C54.9649 -0.10474 55.3611 0.0782268 55.7046 0.797037C56.6423 2.73129 56.4839 4.62634 55.4139 6.44296C54.3704 8.20733 52.7722 9.29206 50.8965 10.024C49.2322 10.6774 47.4886 10.8604 45.7319 10.978C43.658 11.1217 41.5975 10.991 39.5368 10.7428C38.8235 10.6513 38.6783 10.8081 38.6122 11.5138C38.4801 12.8077 38.3084 14.1016 38.1632 15.4085C38.0046 16.6893 37.8593 17.9831 37.714 19.2639C37.6744 19.5776 37.6744 19.8912 37.6083 20.2049C37.5423 20.5317 37.6744 20.6231 37.9782 20.6623C38.8235 20.7799 39.669 20.7277 40.5143 20.6493C42.2976 20.4924 43.9883 19.9958 45.6657 19.4338C46.2206 19.2508 46.7753 19.0679 47.3433 18.9502C47.5414 18.9111 47.8188 19.0287 47.9906 19.1594C48.8623 19.852 49.2322 20.7799 49.2718 21.8647C49.3246 23.2762 49.0604 24.5962 48.2547 25.7855C47.6604 26.6742 46.8546 27.3408 45.9035 27.8374C44.1071 28.7653 42.1654 29.092 40.1577 29.092C39.3784 29.092 38.599 29.0528 37.8197 29.0267C37.3045 29.0136 37.2385 29.079 37.1989 29.5886C37.1328 30.3466 37.08 31.1047 36.9875 31.8627C36.7102 34.3328 36.446 36.7898 36.1157 39.2599C35.8383 41.4032 35.4156 43.5335 34.7817 45.6115C34.4646 46.6441 34.1608 47.6765 33.7778 48.6829C33.2098 50.212 32.4304 51.6365 31.5322 52.9957C30.2774 54.8907 28.7452 56.5505 26.9091 57.9229C25.0863 59.2689 23.0918 60.2883 20.8331 60.7197C19.3669 60.9941 17.8875 61.0464 16.4345 60.7197C14.2154 60.1969 12.3001 59.1383 10.9396 57.2563C10.1867 56.2108 9.65828 55.0606 9.34125 53.806C8.81293 51.728 8.81293 49.65 9.24881 47.5589C9.63187 45.7292 10.3055 44.004 11.2037 42.3442C12.1812 40.5407 13.37 38.894 14.7041 37.3387C16.0118 35.8096 17.4384 34.385 18.997 33.1043C20.3708 31.9934 21.7841 30.9217 23.1842 29.8239C23.7787 29.3665 24.373 28.909 24.9542 28.4255C25.2581 28.1772 25.2448 28.1249 24.9807 27.8374C24.5976 27.4192 24.1881 27.027 23.8447 26.5697C23.0654 25.5372 22.7351 23.6683 23.5277 22.479C24.0164 21.734 24.7032 21.2243 25.5354 20.9237C25.7468 20.8453 25.9581 20.793 26.1694 20.7407C26.777 20.5839 26.9752 20.3748 27.0412 19.7606C27.2262 18.0092 27.6092 16.2972 28.1376 14.6243C28.547 13.3174 29.049 12.0366 29.5113 10.7558C29.617 10.4552 29.7622 10.1546 29.8812 9.85402C29.9604 9.64495 29.9208 9.50121 29.6566 9.46195C29.3263 9.42278 29.0093 9.37049 28.6792 9.33124C26.9752 9.10906 25.2845 8.84771 23.5805 8.67782C21.6388 8.46868 19.6839 8.33805 17.729 8.16808C17.729 8.19422 17.7158 8.22036 17.7158 8.25962ZM25.7732 35.7704C25.7336 35.7443 25.6807 35.7312 25.641 35.705C25.2184 36.0971 24.7825 36.4631 24.3862 36.8813C22.986 38.3843 21.7048 39.9787 20.5424 41.6777C19.314 43.4682 18.2177 45.3502 17.4516 47.389C17.0553 48.4346 16.7383 49.5062 16.8175 50.6302C16.9232 52.0155 17.5308 52.865 19.0366 53.2701C19.6707 53.4401 20.265 53.231 20.7802 52.8781C21.6652 52.2769 22.2067 51.3882 22.6691 50.4472C23.237 49.284 23.6861 48.0817 23.9767 46.827C24.3862 45.0365 24.7957 43.246 25.0995 41.4294C25.3769 39.8088 25.509 38.1752 25.7072 36.5415C25.7468 36.2932 25.76 36.0318 25.7732 35.7704Z" fill="url(#paint0_linear_101_308)"/>
<defs>
<linearGradient id="paint0_linear_101_308" x1="0.678466" y1="55.3819" x2="51.9485" y2="66.5073" gradientUnits="userSpaceOnUse">
<stop stop-color="#F9BE6F"/>
<stop offset="0.449891" stop-color="#FFDEAF"/>
<stop offset="1" stop-color="#DEAE6C"/>
</linearGradient>
</defs>
</svg>
