<svg width="28" height="29" viewBox="0 0 28 29" fill="none" xmlns="http://www.w3.org/2000/svg">
<g clip-path="url(#clip0_101_277)">
<path d="M6.41664 28.067L11.144 17.0374C11.2008 16.9043 11.2238 16.7592 11.2109 16.615C11.198 16.4708 11.1495 16.3321 11.0699 16.2112C10.9903 16.0904 10.882 15.9911 10.7546 15.9223C10.6273 15.8535 10.4849 15.8174 10.3401 15.817H6.88331C6.73811 15.8176 6.59506 15.7819 6.46709 15.7133C6.33912 15.6447 6.23026 15.5453 6.15036 15.4241C6.07046 15.3028 6.02203 15.1636 6.00945 15.0189C5.99687 14.8743 6.02054 14.7288 6.07831 14.5955L11.4333 2.34554C11.5014 2.18957 11.6135 2.05683 11.7558 1.96359C11.8982 1.87034 12.0646 1.82063 12.2348 1.82054H21.2181C21.383 1.8206 21.5445 1.86723 21.684 1.95506C21.8235 2.04289 21.9354 2.16834 22.0067 2.31696C22.078 2.46559 22.1059 2.63134 22.0871 2.79513C22.0684 2.95891 22.0037 3.11406 21.9006 3.24271L17.1756 9.14954C17.0728 9.27828 17.0085 9.43342 16.9899 9.59713C16.9714 9.76083 16.9995 9.92644 17.0709 10.0749C17.1423 10.2234 17.2542 10.3486 17.3937 10.4363C17.5332 10.524 17.6946 10.5705 17.8593 10.5705H21.805C21.9782 10.5705 22.1475 10.6218 22.2915 10.718C22.4355 10.8142 22.5477 10.951 22.6139 11.111C22.6801 11.2711 22.6973 11.4471 22.6634 11.617C22.6295 11.7868 22.5459 11.9427 22.4233 12.065L6.41664 28.067Z" stroke="url(#paint0_linear_101_277)" stroke-linejoin="round"/>
</g>
<defs>
<linearGradient id="paint0_linear_101_277" x1="6.76647" y1="31.9554" x2="22.9869" y2="31.6119" gradientUnits="userSpaceOnUse">
<stop stop-color="#F9BE6F"/>
<stop offset="1" stop-color="#FFD393"/>
</linearGradient>
<clipPath id="clip0_101_277">
<rect width="28" height="28" fill="white" transform="translate(0 0.945541)"/>
</clipPath>
</defs>
</svg>
